<?xml version="1.0" encoding="utf-8"?>
<!DOCTYPE svg PUBLIC "-//W3C//DTD SVG 1.1//EN" "http://www.w3.org/Graphics/SVG/1.1/DTD/svg11.dtd">
<svg id="moyasu-spray-01" data-name="moyasu-spray-01" xmlns="http://www.w3.org/2000/svg" xmlns:xlink="http://www.w3.org/1999/xlink" width="245" height="22" viewBox="0 0 245 22"><title>moyasu_spray</title><path fill="#f7f9f9" class="cls-1" d="M32.33,4.86c-.09.14-.09.14-.54.93a29.53,29.53,0,0,1-2,3.1,41.14,41.14,0,0,1-.37,4.57A15.1,15.1,0,0,0,32.31,17a6,6,0,0,0-.84,1.23,21.1,21.1,0,0,1-2.33-3.19,13.19,13.19,0,0,1-2.94,6.18,4.34,4.34,0,0,0-1-1.26,9.1,9.1,0,0,0,2-3.29c1-2.66,1.33-5.22,1.33-12A23.63,23.63,0,0,0,28.39.5h1.68a8.8,8.8,0,0,0-.14,1.7v.42c0,1.82,0,2.52,0,4.36a11.65,11.65,0,0,0,1.37-3ZM25.48,11a16.74,16.74,0,0,0,.79-6.11l1.24.28a26.43,26.43,0,0,1-.84,6.46Zm5.41,9.65a12.8,12.8,0,0,0,2.66-5.27l1.21.47a17.22,17.22,0,0,1-2.68,5.64ZM33.77,8.45c.19.14.35.26.47.33a11.8,11.8,0,0,1,1.4,1.1,14.77,14.77,0,0,0,1-1.77,17.31,17.31,0,0,0-2-1.4l.63-1c.65.42,1.26.82,1.79,1.21a17.21,17.21,0,0,0,.75-2.8H35.17a17.26,17.26,0,0,1-3,5.17,3.78,3.78,0,0,0-1-1,12.73,12.73,0,0,0,2.94-5.1A11.63,11.63,0,0,0,34.68.59L36.2.94a16.3,16.3,0,0,0-.63,2h1.37a15.59,15.59,0,0,0,1.61-.07l.63.61c0,.23-.09.49-.26,1.31,0,.23-.07.42-.16.77.47,0,.68,0,1,0H41a30.81,30.81,0,0,0,.16-3.36A10.47,10.47,0,0,0,41,.71h1.56a8.7,8.7,0,0,0-.09,1.49c0,1.28-.07,2.26-.19,3.38h2.05a13.92,13.92,0,0,0,2.14-.14V6.93a14.19,14.19,0,0,0-2.14-.14H42.42A12.49,12.49,0,0,0,47,13.65a6,6,0,0,0-.93,1.26,14.4,14.4,0,0,1-4.26-6.6,10.28,10.28,0,0,1-4.41,6.62,3.66,3.66,0,0,0-1-1A8.33,8.33,0,0,0,39.88,10a10.83,10.83,0,0,0,.91-3.24h-1c-.54,0-.91,0-1.35,0a16.67,16.67,0,0,1-5.87,8.27,4.3,4.3,0,0,0-1-1A13.32,13.32,0,0,0,35,10.85a12.68,12.68,0,0,0-1.93-1.49Zm3.08,12.82A26.11,26.11,0,0,0,36,16l1.21-.21a27.17,27.17,0,0,1,1,5.24Zm4.15,0a24.54,24.54,0,0,0-1.58-5.5l1.24-.28a28.19,28.19,0,0,1,1.68,5.41Zm4.68,0a22,22,0,0,0-2.77-5.55l1.14-.58a25.08,25.08,0,0,1,2.89,5.41Zm-1.45-20a16.43,16.43,0,0,1,2.19,2.91L45.4,5a12.5,12.5,0,0,0-2.19-3.08Z"/><path fill="#f7f9f9" class="cls-1" d="M52.38,1.9a9.32,9.32,0,0,0,.44,1.42c.47,1.37.7,2,1,3.08a41.23,41.23,0,0,1,5-1.31A32.22,32.22,0,0,0,58.76,1h1.75a22,22,0,0,0-.12,3.15s0,.47,0,.75a11.77,11.77,0,0,1,1.75-.14c3.12,0,5.13,1.68,5.13,4.29,0,2.8-2.28,4.8-5.48,4.8a9.86,9.86,0,0,1-3.94-.86,3.35,3.35,0,0,0,0-.42,10.37,10.37,0,0,0-.14-1.33,7.92,7.92,0,0,0,3.92,1.07,4.72,4.72,0,0,0,2.8-.91A2.82,2.82,0,0,0,65.59,9c0-1.77-1.37-2.82-3.73-2.82a27.49,27.49,0,0,0-7.6,1.65c1.19,4,2,7.25,3,11.63a7.43,7.43,0,0,0,.3,1l-1.89.42A82.92,82.92,0,0,0,52.75,8.28a10,10,0,0,1-1.26.42A22.2,22.2,0,0,0,48.3,10l-.61-1.65a25.54,25.54,0,0,0,3.43-1.1c.58-.21.82-.26,1.19-.37a23.42,23.42,0,0,0-1.68-4.43Z"/><path fill="#f7f9f9" class="cls-1" d="M75.66,2c-.14.75-.14.75-.21,4.87,3.78-.21,4.71-.26,7.62-.37V5.81c0-.26,0-.51,0-.79A22.34,22.34,0,0,0,83,1.48h1.79a12.72,12.72,0,0,0-.09,1.79v1l0,1.52V6.4c2.28,0,4.1-.12,4.87-.21l0,1.65c-.63,0-.77,0-1.75,0-.21,0-.82,0-1.58,0-.37,0-.89,0-1.63,0a22.1,22.1,0,0,1-.42,4.54,2.34,2.34,0,0,1-2.35,2.05,6.69,6.69,0,0,1-3.24-1.07c0-.35,0-.47,0-.7s0-.49,0-1A6.61,6.61,0,0,0,81.63,13c.65,0,.93-.37,1.14-1.52A21.14,21.14,0,0,0,83,7.89c-2.82.09-4.5.19-7.6.4v2.1a35.77,35.77,0,0,0,.23,5.87,2,2,0,0,0,1.56,1.52,13,13,0,0,0,3.64.4,21.11,21.11,0,0,0,6.48-.86l.19,1.8c-.33,0-.37,0-.93.12a39.62,39.62,0,0,1-5.9.49c-4.15,0-5.92-.79-6.53-2.89a24.65,24.65,0,0,1-.3-5.52V8.38a47,47,0,0,0-4.68.49l-.14-1.63a4.9,4.9,0,0,0,.51,0c.42,0,1.86-.09,4.31-.3V5.44A24.83,24.83,0,0,0,73.77,2Z"/><path fill="#f7f9f9" class="cls-1" d="M93,2.34a10.79,10.79,0,0,0,2.19.14c1.93,0,5-.14,7.13-.3a2.39,2.39,0,0,0,1.12-.26l1,1.28a4.3,4.3,0,0,0-1.19,1,59.85,59.85,0,0,1-7.67,6.62l0,.07a11.81,11.81,0,0,1,5.71-1.45c3.89,0,6.39,1.91,6.39,4.89,0,3.64-3.38,6-8.55,6C95.87,20.36,94,19.15,94,17c0-1.56,1.45-2.73,3.38-2.73a4.7,4.7,0,0,1,3.85,1.91,6.67,6.67,0,0,1,1.07,2.24c2.45-.68,3.73-2.1,3.73-4.08,0-2.24-1.87-3.57-5-3.57a15,15,0,0,0-9.81,4l-1-1.49a25.93,25.93,0,0,0,3.26-2.38c2.49-2,6.18-5.22,7.78-6.81l.33-.33.09-.09.09-.09,0,0-.21,0c-.75.14-3.54.3-7.08.42a11.53,11.53,0,0,0-1.26.12ZM97.39,15.6c-1.17,0-1.89.56-1.89,1.45a1.59,1.59,0,0,0,.93,1.42A6,6,0,0,0,99,19a8.43,8.43,0,0,0,1.7-.16C100.23,16.72,99.07,15.6,97.39,15.6Z"/><path fill="#f7f9f9" class="cls-1" d="M117.22,10.85a1.91,1.91,0,1,1-1.91-1.91A1.92,1.92,0,0,1,117.22,10.85Z"/><path fill="#f7f9f9" class="cls-1" d="M11.6,21.9s-2.4-3-2.5-5.5c-.1-1.9.3-4,.5-3.1A21.52,21.52,0,0,0,11,16s2.4-3.2,1.9-2.2.3,3.6,1.1,3.6a8.25,8.25,0,0,0,2.8-.9s-.6,2.7-1.3,3.3c-.8.8-2.3,2.2-2.3,2.2A20.31,20.31,0,0,0,17,20.9c5.4-2,3.4-13.1,3.4-13.1S17.7,10.9,18,10a24.65,24.65,0,0,0-.4-4.9c0,.1-1.5,4.5-1.6,3C15.8,5.6,12.9.4,12.9.4s.1,1.1.1,2.8a14.79,14.79,0,0,1-.3,3s-3.1-4-2.6-2.4c.2.5,1.2,3.1.5,4.6s-1.5,1.9-1.7,1.8S8.6,5,8.1,5.8a18,18,0,0,0-2,3.1,10.33,10.33,0,0,0-.9,6.5,8.73,8.73,0,0,0,2.2,4.3c1.3,1.5,4.2,2.2,4.2,2.2"/><rect fill="#f7f9f9" class="cls-1" x="123.72" y="9.83" width="14.11" height="12.17"/><rect fill="#f7f9f9" class="cls-1" x="125.19" y="6.96" width="11.18" height="1.89"/><rect fill="#f7f9f9" class="cls-1" x="126.16" y="4.93" width="9.24" height="1.09"/><rect fill="#f7f9f9" class="cls-1" x="128.39" width="4.77" height="3.92"/><rect fill="#f7f9f9" class="cls-1" x="123.44" y="0.67" width="3.68" height="1.89"/><path fill="#f7f9f9" class="cls-1" d="M159.4,20.2a43,43,0,0,0-7.4-7.15,25.16,25.16,0,0,1-4.42,4.14A29.74,29.74,0,0,1,143,20a5.16,5.16,0,0,0-1.13-1.53,18.61,18.61,0,0,0,4.69-2.66,25.07,25.07,0,0,0,8.26-10.43c0-.14.07-.16.12-.28a.48.48,0,0,0,.07-.16,3.94,3.94,0,0,1-.56,0l-7.72.12a15.59,15.59,0,0,0-2.38.18l0-1.87a10.9,10.9,0,0,0,1.83.12h.6L155,3.39a4.31,4.31,0,0,0,1.48-.18l1,1a4.3,4.3,0,0,0-.65,1.13A28,28,0,0,1,153,11.81a57.49,57.49,0,0,1,7.7,6.94Z"/><path fill="#f7f9f9" class="cls-1" d="M176,3.83a2.44,2.44,0,0,1-.09-.67,2.62,2.62,0,1,1,2.61,2.61,2.72,2.72,0,0,1-.81-.12l0,.14c-1.13,4.12-2.61,7-4.72,9.2a21.46,21.46,0,0,1-8.42,5.48,4.57,4.57,0,0,0-1.13-1.6,18.57,18.57,0,0,0,8.46-5.25,18.74,18.74,0,0,0,4-8.23H164.11a17.11,17.11,0,0,0-2.59.14V3.69a16.38,16.38,0,0,0,2.61.14H176Zm.88-.69a1.65,1.65,0,1,0,1.67-1.64A1.66,1.66,0,0,0,176.85,3.14Z"/><path fill="#f7f9f9" class="cls-1" d="M185.57,2.23a14.21,14.21,0,0,0-.12,2.06l-.07,13.95A17.46,17.46,0,0,0,192,15.93a14,14,0,0,0,5.2-5.55,5.88,5.88,0,0,0,1.27,1.46c-3.17,4.72-6.57,6.87-12.74,8.07a5.83,5.83,0,0,0-1.34.35l-.92-1.16a4.43,4.43,0,0,0,.16-1.5l0-13.25V3.48a12,12,0,0,0-.07-1.25Z"/><path fill="#f7f9f9" class="cls-1" d="M201,10.17a16.4,16.4,0,0,0,2.87.14h11.51a18.28,18.28,0,0,0,2.8-.12v1.87a26.55,26.55,0,0,0-2.82-.09H203.87a25.36,25.36,0,0,0-2.87.09Z"/><path fill="#f7f9f9" class="cls-1" d="M225.24,5.13a16.73,16.73,0,0,1-2.8,3.65,5.34,5.34,0,0,0-1.27-1,14,14,0,0,0,3.89-5.64A7.41,7.41,0,0,0,225.54.5l1.66.39a2.72,2.72,0,0,0-.28.58,2.4,2.4,0,0,1-.16.37c0,.07-.09.23-.16.42-.3.69-.39.92-.67,1.53h11.24a12.17,12.17,0,0,0,2.08-.12V5.24a13,13,0,0,0-2.08-.12h-5.71V9.8h7.19A15.89,15.89,0,0,0,241,9.66V11.3a17.08,17.08,0,0,0-2.36-.14h-7.19v7.38h5.92V14.82a9.42,9.42,0,0,0-.12-1.76H239a9.48,9.48,0,0,0-.12,1.83v4.6a13.16,13.16,0,0,0,.12,2h-1.62V19.83H224.25v1.62H222.6a9.86,9.86,0,0,0,.14-2V14.82a9.54,9.54,0,0,0-.12-1.78h1.73a8.59,8.59,0,0,0-.12,1.73v3.77h5.69V11.16h-7a16.72,16.72,0,0,0-2.34.14V9.66a15.75,15.75,0,0,0,2.34.14h7V5.13Z"/></svg>